<svg xmlns="http://www.w3.org/2000/svg" viewBox="0 0 512 512">
  <defs>
    <linearGradient id="bg" x1="0" y1="0" x2="0" y2="1">
      <stop offset="0" stop-color="#0f1a15"/>
      <stop offset="1" stop-color="#070b09"/>
    </linearGradient>
    <linearGradient id="pile" x1="0" y1="0" x2="0" y2="1">
      <stop offset="0" stop-color="#86efac"/>
      <stop offset="1" stop-color="#22c55e"/>
    </linearGradient>
  </defs>
  <rect width="512" height="512" rx="112" fill="url(#bg)"/>
  <rect x="6" y="6" width="500" height="500" rx="106" fill="none" stroke="#1d3a2b" stroke-width="4"/>
  <path fill="url(#pile)" d="M124 404H388A39 39 0 0 0 388 326H348A35 35 0 0 0 348 256H316A30 30 0 0 0 316 196H296C314 166 300 124 250 100C258 138 244 176 196 196A30 30 0 0 0 196 256H164A35 35 0 0 0 164 326H124A39 39 0 0 0 124 404Z"/>
  <g fill="none" stroke="#0a120e" stroke-linecap="round" stroke-linejoin="round">
    <path d="M182 256H330M152 326H360" stroke-width="10" opacity=".55"/>
    <path d="M190 346L222 365L190 384" stroke-width="16"/>
    <path d="M242 384H294" stroke-width="16"/>
  </g>
</svg>
